<svg width="1731pt" height="1033pt" xmlns="http://www.w3.org/2000/svg" xmlns:xlink="http://www.w3.org/1999/xlink" xmlns:ev="http://www.w3.org/2001/xml-events" style="overflow: hidden; "><g id="viewport-20260416215805344" class="svg-pan-zoom_viewport" transform="matrix(0.5478105895429126,0,0,0.5478105895429126,89.49013425997627,7.725208000461301)" style="transform: matrix(0.547811, 0, 0, 0.547811, 89.4901, 7.72521);">
<g id="graph0" class="graph" transform="scale(1 1) rotate(0) translate(4 1029.37)">
<title>ER</title>
<polygon fill="white" stroke="none" points="-4,4 -4,-1029.37 1727.18,-1029.37 1727.18,4 -4,4"></polygon>
<!-- User -->
<g id="node1" class="node">
<title>User</title>
<polygon fill="#fcfcfc" stroke="black" points="883.43,-872.37 829.43,-872.37 829.43,-836.37 883.43,-836.37 883.43,-872.37"></polygon>
<text text-anchor="middle" x="856.43" y="-850.77" font-family="Arial" font-size="12.00">User</text>
</g>
<!-- u_id -->
<g id="node10" class="node">
<title>u_id</title>
<ellipse fill="none" stroke="black" cx="611.43" cy="-686.19" rx="36" ry="18"></ellipse>
<text text-anchor="start" x="591.75" y="-683.59" font-family="Arial" text-decoration="underline" font-size="12.00">user_id</text>
</g>
<!-- User&#45;&#45;u_id -->
<g id="edge1" class="edge">
<title>User--u_id</title>
<path fill="none" stroke="black" d="M830.67,-835.9C781.9,-802.82 676.94,-731.63 632.26,-701.32"></path>
</g>
<!-- u_name -->
<g id="node11" class="node">
<title>u_name</title>
<ellipse fill="none" stroke="black" cx="727.43" cy="-686.19" rx="44.3" ry="18"></ellipse>
<text text-anchor="middle" x="727.43" y="-682.59" font-family="Arial" font-size="12.00">username</text>
</g>
<!-- User&#45;&#45;u_name -->
<g id="edge2" class="edge">
<title>User--u_name</title>
<path fill="none" stroke="black" d="M842.87,-835.9C817.77,-803.57 764.41,-734.83 740.04,-703.44"></path>
</g>
<!-- u_xp -->
<g id="node12" class="node">
<title>u_xp</title>
<ellipse fill="none" stroke="black" cx="978.43" cy="-686.19" rx="37.06" ry="18"></ellipse>
<text text-anchor="middle" x="978.43" y="-682.59" font-family="Arial" font-size="12.00">total_xp</text>
</g>
<!-- User&#45;&#45;u_xp -->
<g id="edge3" class="edge">
<title>User--u_xp</title>
<path fill="none" stroke="black" d="M869.25,-835.9C892.99,-803.57 943.45,-734.83 966.49,-703.44"></path>
</g>
<!-- Earns -->
<g id="node41" class="node">
<title>Earns</title>
<polygon fill="#ffffff" stroke="black" points="1093.43,-704.19 1051.86,-686.19 1093.43,-668.19 1134.99,-686.19 1093.43,-704.19"></polygon>
<text text-anchor="middle" x="1093.43" y="-682.59" font-family="Arial" font-size="12.00">earns</text>
</g>
<!-- User&#45;&#45;Earns -->
<g id="edge35" class="edge">
<title>User--Earns</title>
<path fill="none" stroke="black" d="M881.34,-835.9C930.43,-801.48 1038.32,-725.83 1078.21,-697.86"></path>
<text text-anchor="middle" x="979.59" y="-769.37" font-family="Arial" font-size="10.00">M</text>
</g>
<!-- Studies -->
<g id="node42" class="node">
<title>Studies</title>
<polygon fill="#ffffff" stroke="black" points="856.43,-704.19 807.63,-686.19 856.43,-668.19 905.22,-686.19 856.43,-704.19"></polygon>
<text text-anchor="middle" x="856.43" y="-682.59" font-family="Arial" font-size="12.00">studies</text>
</g>
<!-- User&#45;&#45;Studies -->
<g id="edge37" class="edge">
<title>User--Studies</title>
<path fill="none" stroke="black" d="M856.43,-835.9C856.43,-803.98 856.43,-736.6 856.43,-704.67"></path>
<text text-anchor="middle" x="860.59" y="-769.37" font-family="Arial" font-size="10.00">M</text>
</g>
<!-- Performs -->
<g id="node43" class="node">
<title>Performs</title>
<polygon fill="#ffffff" stroke="black" points="1368.43,-704.19 1310,-686.19 1368.43,-668.19 1426.85,-686.19 1368.43,-704.19"></polygon>
<polygon fill="none" stroke="black" points="1368.43,-708.37 1296.41,-686.19 1368.43,-664 1440.44,-686.19 1368.43,-708.37"></polygon>
<text text-anchor="middle" x="1368.43" y="-682.59" font-family="Arial" font-size="12.00">initializes</text>
</g>
<!-- User&#45;&#45;Performs -->
<g id="edge39" class="edge">
<title>User--Performs</title>
<path fill="none" stroke="black" d="M883.9,-842.99C893.27,-839.45 901.43,-836.37 901.43,-836.37 901.43,-836.37 1226.24,-732.61 1334.09,-698.16"></path>
<text text-anchor="middle" x="1110.21" y="-769.37" font-family="Arial" font-size="10.00">1</text>
</g>
<!-- Word -->
<g id="node2" class="node">
<title>Word</title>
<polygon fill="#fcfcfc" stroke="black" points="611.43,-200 557.43,-200 557.43,-164 611.43,-164 611.43,-200"></polygon>
<text text-anchor="middle" x="584.43" y="-178.4" font-family="Arial" font-size="12.00">Word</text>
</g>
<!-- w_id -->
<g id="node19" class="node">
<title>w_id</title>
<ellipse fill="none" stroke="black" cx="287.43" cy="-18" rx="37.06" ry="18"></ellipse>
<text text-anchor="start" x="266.42" y="-15.4" font-family="Arial" text-decoration="underline" font-size="12.00">word_id</text>
</g>
<!-- Word&#45;&#45;w_id -->
<g id="edge10" class="edge">
<title>Word--w_id</title>
<path fill="none" stroke="black" d="M557.02,-166.05C499.29,-134.56 366.02,-61.87 311.42,-32.09"></path>
</g>
<!-- w_text -->
<g id="node20" class="node">
<title>w_text</title>
<ellipse fill="none" stroke="black" cx="396.43" cy="-18" rx="36" ry="18"></ellipse>
<text text-anchor="middle" x="396.43" y="-14.4" font-family="Arial" font-size="12.00">word</text>
</g>
<!-- Word&#45;&#45;w_text -->
<g id="edge11" class="edge">
<title>Word--w_text</title>
<path fill="none" stroke="black" d="M564.31,-163.66C527.27,-131.75 448.89,-64.21 413.92,-34.07"></path>
</g>
<!-- w_trans -->
<g id="node21" class="node">
<title>w_trans</title>
<ellipse fill="none" stroke="black" cx="514.43" cy="-18" rx="45.58" ry="18"></ellipse>
<text text-anchor="middle" x="514.43" y="-14.4" font-family="Arial" font-size="12.00">translation</text>
</g>
<!-- Word&#45;&#45;w_trans -->
<g id="edge12" class="edge">
<title>Word--w_trans</title>
<path fill="none" stroke="black" d="M576.94,-163.66C563.46,-132.48 535.3,-67.3 521.86,-36.21"></path>
</g>
<!-- w_diff -->
<g id="node22" class="node">
<title>w_diff</title>
<ellipse fill="none" stroke="black" cx="654.43" cy="-18" rx="57.93" ry="18"></ellipse>
<text text-anchor="middle" x="654.43" y="-14.4" font-family="Arial" font-size="12.00">difficulty_level</text>
</g>
<!-- Word&#45;&#45;w_diff -->
<g id="edge13" class="edge">
<title>Word--w_diff</title>
<path fill="none" stroke="black" d="M591.92,-163.66C605.39,-132.48 633.56,-67.3 646.99,-36.21"></path>
</g>
<!-- Derives -->
<g id="node38" class="node">
<title>Derives</title>
<polygon fill="#ffffff" stroke="black" points="833.43,-36 747.9,-18 833.43,0 918.96,-18 833.43,-36"></polygon>
<text text-anchor="middle" x="833.43" y="-14.4" font-family="Arial" font-size="12.00">is derived from</text>
</g>
<!-- Word&#45;&#45;Derives -->
<g id="edge29" class="edge">
<title>Word--Derives</title>
<path fill="none" stroke="black" d="M611.07,-163.66C661.26,-131.01 768.74,-61.08 813.37,-32.05"></path>
<text text-anchor="middle" x="719.21" y="-97" font-family="Arial" font-size="10.00">1</text>
</g>
<!-- Wordlist -->
<g id="node3" class="node">
<title>Wordlist</title>
<polygon fill="#fcfcfc" stroke="black" points="313.09,-532 253.76,-532 253.76,-496 313.09,-496 313.09,-532"></polygon>
<text text-anchor="middle" x="283.43" y="-510.4" font-family="Arial" font-size="12.00">Wordlist</text>
</g>
<!-- wl_id -->
<g id="node23" class="node">
<title>wl_id</title>
<ellipse fill="none" stroke="black" cx="46.43" cy="-346" rx="46.43" ry="18"></ellipse>
<text text-anchor="start" x="18.08" y="-343.4" font-family="Arial" text-decoration="underline" font-size="12.00">wordlist_id</text>
</g>
<!-- Wordlist&#45;&#45;wl_id -->
<g id="edge14" class="edge">
<title>Wordlist--wl_id</title>
<path fill="none" stroke="black" d="M258.51,-495.55C211.92,-462.92 112.35,-393.18 68.24,-362.28"></path>
</g>
<!-- wl_name -->
<g id="node24" class="node">
<title>wl_name</title>
<ellipse fill="none" stroke="black" cx="164.43" cy="-346" rx="36" ry="18"></ellipse>
<text text-anchor="middle" x="164.43" y="-342.4" font-family="Arial" font-size="12.00">name</text>
</g>
<!-- Wordlist&#45;&#45;wl_name -->
<g id="edge15" class="edge">
<title>Wordlist--wl_name</title>
<path fill="none" stroke="black" d="M270.92,-495.55C247.76,-463.25 198.55,-394.6 176.07,-363.24"></path>
</g>
<!-- wl_desc -->
<g id="node25" class="node">
<title>wl_desc</title>
<ellipse fill="none" stroke="black" cx="283.43" cy="-346" rx="47.28" ry="18"></ellipse>
<text text-anchor="middle" x="283.43" y="-342.4" font-family="Arial" font-size="12.00">description</text>
</g>
<!-- Wordlist&#45;&#45;wl_desc -->
<g id="edge16" class="edge">
<title>Wordlist--wl_desc</title>
<path fill="none" stroke="black" d="M283.43,-495.55C283.43,-463.67 283.43,-396.36 283.43,-364.47"></path>
</g>
<!-- wl_diff -->
<g id="node26" class="node">
<title>wl_diff</title>
<ellipse fill="none" stroke="black" cx="424.43" cy="-346" rx="57.93" ry="18"></ellipse>
<text text-anchor="middle" x="424.43" y="-342.4" font-family="Arial" font-size="12.00">difficulty_level</text>
</g>
<!-- Wordlist&#45;&#45;wl_diff -->
<g id="edge17" class="edge">
<title>Wordlist--wl_diff</title>
<path fill="none" stroke="black" d="M298.25,-495.55C325.54,-463.42 383.4,-395.3 410.22,-363.72"></path>
</g>
<!-- Includes -->
<g id="node40" class="node">
<title>Includes</title>
<polygon fill="#ffffff" stroke="black" points="584.43,-364 518.77,-346 584.43,-328 650.08,-346 584.43,-364"></polygon>
<text text-anchor="middle" x="584.43" y="-342.4" font-family="Arial" font-size="12.00">consists of</text>
</g>
<!-- Wordlist&#45;&#45;Includes -->
<g id="edge33" class="edge">
<title>Wordlist--Includes</title>
<path fill="none" stroke="black" d="M313.39,-496.48C374.21,-462.94 510.81,-387.6 563.32,-358.64"></path>
<text text-anchor="middle" x="447.59" y="-425" font-family="Arial" font-size="10.00">M</text>
</g>
<!-- Topic -->
<g id="node4" class="node">
<title>Topic</title>
<polygon fill="#fcfcfc" stroke="black" points="409.43,-872.37 355.43,-872.37 355.43,-836.37 409.43,-836.37 409.43,-872.37"></polygon>
<text text-anchor="middle" x="382.43" y="-850.77" font-family="Arial" font-size="12.00">Topic</text>
</g>
<!-- t_id -->
<g id="node27" class="node">
<title>t_id</title>
<ellipse fill="none" stroke="black" cx="502.43" cy="-686.19" rx="36.64" ry="18"></ellipse>
<text text-anchor="start" x="481.75" y="-683.59" font-family="Arial" text-decoration="underline" font-size="12.00">topic_id</text>
</g>
<!-- Topic&#45;&#45;t_id -->
<g id="edge18" class="edge">
<title>Topic--t_id</title>
<path fill="none" stroke="black" d="M395.04,-835.9C418.39,-803.57 468.02,-734.83 490.69,-703.44"></path>
</g>
<!-- t_name -->
<g id="node28" class="node">
<title>t_name</title>
<ellipse fill="none" stroke="black" cx="117.43" cy="-686.19" rx="36" ry="18"></ellipse>
<text text-anchor="middle" x="117.43" y="-682.59" font-family="Arial" font-size="12.00">name</text>
</g>
<!-- Topic&#45;&#45;t_name -->
<g id="edge19" class="edge">
<title>Topic--t_name</title>
<path fill="none" stroke="black" d="M355.07,-836.21C302.3,-803.12 187.46,-731.1 139.33,-700.92"></path>
</g>
<!-- t_desc -->
<g id="node29" class="node">
<title>t_desc</title>
<ellipse fill="none" stroke="black" cx="382.43" cy="-686.19" rx="47.28" ry="18"></ellipse>
<text text-anchor="middle" x="382.43" y="-682.59" font-family="Arial" font-size="12.00">description</text>
</g>
<!-- Topic&#45;&#45;t_desc -->
<g id="edge20" class="edge">
<title>Topic--t_desc</title>
<path fill="none" stroke="black" d="M382.43,-835.9C382.43,-803.98 382.43,-736.6 382.43,-704.67"></path>
</g>
<!-- Categorizes -->
<g id="node39" class="node">
<title>Categorizes</title>
<polygon fill="#ffffff" stroke="black" points="244.43,-704.19 189.6,-686.19 244.43,-668.19 299.25,-686.19 244.43,-704.19"></polygon>
<text text-anchor="middle" x="244.43" y="-682.59" font-family="Arial" font-size="12.00">contains</text>
</g>
<!-- Topic&#45;&#45;Categorizes -->
<g id="edge31" class="edge">
<title>Topic--Categorizes</title>
<path fill="none" stroke="black" d="M367.92,-835.9C340.24,-802.57 280.44,-730.55 255.6,-700.64"></path>
<text text-anchor="middle" x="321.21" y="-769.37" font-family="Arial" font-size="10.00">1</text>
</g>
<!-- Achievement -->
<g id="node5" class="node">
<title>Achievement</title>
<polygon fill="#fcfcfc" stroke="black" points="1066.11,-532 980.74,-532 980.74,-496 1066.11,-496 1066.11,-532"></polygon>
<text text-anchor="middle" x="1023.43" y="-510.4" font-family="Arial" font-size="12.00">Achievement</text>
</g>
<!-- a_id -->
<g id="node34" class="node">
<title>a_id</title>
<ellipse fill="none" stroke="black" cx="887.43" cy="-346" rx="63.9" ry="18"></ellipse>
<text text-anchor="start" x="845.4" y="-343.4" font-family="Arial" text-decoration="underline" font-size="12.00">achievement_id</text>
</g>
<!-- Achievement&#45;&#45;a_id -->
<g id="edge25" class="edge">
<title>Achievement--a_id</title>
<path fill="none" stroke="black" d="M1009.13,-495.55C982.8,-463.42 927,-395.3 901.13,-363.72"></path>
</g>
<!-- a_title -->
<g id="node35" class="node">
<title>a_title</title>
<ellipse fill="none" stroke="black" cx="1023.43" cy="-346" rx="36" ry="18"></ellipse>
<text text-anchor="middle" x="1023.43" y="-342.4" font-family="Arial" font-size="12.00">title</text>
</g>
<!-- Achievement&#45;&#45;a_title -->
<g id="edge26" class="edge">
<title>Achievement--a_title</title>
<path fill="none" stroke="black" d="M1023.43,-495.55C1023.43,-463.67 1023.43,-396.36 1023.43,-364.47"></path>
</g>
<!-- a_desc -->
<g id="node36" class="node">
<title>a_desc</title>
<ellipse fill="none" stroke="black" cx="1142.43" cy="-346" rx="47.28" ry="18"></ellipse>
<text text-anchor="middle" x="1142.43" y="-342.4" font-family="Arial" font-size="12.00">description</text>
</g>
<!-- Achievement&#45;&#45;a_desc -->
<g id="edge27" class="edge">
<title>Achievement--a_desc</title>
<path fill="none" stroke="black" d="M1035.94,-495.55C1058.97,-463.42 1107.8,-395.3 1130.44,-363.72"></path>
</g>
<!-- a_xp -->
<g id="node37" class="node">
<title>a_xp</title>
<ellipse fill="none" stroke="black" cx="744.43" cy="-346" rx="43.46" ry="18"></ellipse>
<text text-anchor="middle" x="744.43" y="-342.4" font-family="Arial" font-size="12.00">xp_bonus</text>
</g>
<!-- Achievement&#45;&#45;a_xp -->
<g id="edge28" class="edge">
<title>Achievement--a_xp</title>
<path fill="none" stroke="black" d="M994.1,-495.55C938.69,-462.59 819.64,-391.75 768.54,-361.34"></path>
</g>
<!-- BasicUser -->
<g id="node6" class="node">
<title>BasicUser</title>
<polygon fill="#fcfcfc" stroke="black" points="595.44,-1025.37 521.41,-1025.37 521.41,-989.37 595.44,-989.37 595.44,-1025.37"></polygon>
<text text-anchor="middle" x="558.43" y="-1003.77" font-family="Arial" font-size="12.00">basic_user</text>
</g>
<!-- BasicUser&#45;&#45;User -->
<g id="edge41" class="edge">
<title>BasicUser--User</title>
<path fill="none" stroke="black" stroke-width="1.5" d="M592.9,-988.9C649.18,-960.39 760.35,-904.06 818.68,-874.5"></path>
<polygon fill="none" stroke="black" stroke-width="1.5" points="819.9,-877.8 827.24,-870.16 816.74,-871.56 819.9,-877.8"></polygon>
</g>
<!-- bu_limit -->
<g id="node13" class="node">
<title>bu_limit</title>
<ellipse fill="none" stroke="black" cx="254.43" cy="-854.37" rx="64.74" ry="18"></ellipse>
<text text-anchor="middle" x="254.43" y="-850.77" font-family="Arial" font-size="12.00">daily_word_limit</text>
</g>
<!-- BasicUser&#45;&#45;bu_limit -->
<g id="edge4" class="edge">
<title>BasicUser--bu_limit</title>
<path fill="none" stroke="black" d="M523.26,-988.9C463.24,-959.09 342.03,-898.89 285.18,-870.65"></path>
</g>
<!-- bu_trial -->
<g id="node14" class="node">
<title>bu_trial</title>
<ellipse fill="none" stroke="black" cx="558.43" cy="-854.37" rx="53.25" ry="18"></ellipse>
<text text-anchor="middle" x="558.43" y="-850.77" font-family="Arial" font-size="12.00">is_trial_used</text>
</g>
<!-- BasicUser&#45;&#45;bu_trial -->
<g id="edge5" class="edge">
<title>BasicUser--bu_trial</title>
<path fill="none" stroke="black" d="M558.43,-989.05C558.43,-959.92 558.43,-901.48 558.43,-872.49"></path>
</g>
<!-- PremiumUser -->
<g id="node7" class="node">
<title>PremiumUser</title>
<polygon fill="#fcfcfc" stroke="black" points="902.77,-1025.37 810.08,-1025.37 810.08,-989.37 902.77,-989.37 902.77,-1025.37"></polygon>
<text text-anchor="middle" x="856.43" y="-1003.77" font-family="Arial" font-size="12.00">premium_user</text>
</g>
<!-- PremiumUser&#45;&#45;User -->
<g id="edge42" class="edge">
<title>PremiumUser--User</title>
<path fill="none" stroke="black" stroke-width="1.5" d="M856.43,-989.05C856.43,-963.56 856.43,-915.63 856.43,-884.63"></path>
<polygon fill="none" stroke="black" stroke-width="1.5" points="859.93,-884.76 856.43,-874.76 852.93,-884.76 859.93,-884.76"></polygon>
</g>
<!-- pu_exp -->
<g id="node15" class="node">
<title>pu_exp</title>
<ellipse fill="none" stroke="black" cx="995.43" cy="-854.37" rx="75.82" ry="18"></ellipse>
<text text-anchor="middle" x="995.43" y="-850.77" font-family="Arial" font-size="12.00">subscription_expiry</text>
</g>
<!-- PremiumUser&#45;&#45;pu_exp -->
<g id="edge6" class="edge">
<title>PremiumUser--pu_exp</title>
<path fill="none" stroke="black" d="M872.37,-989.05C899.33,-959.77 953.55,-900.86 980.09,-872.03"></path>
</g>
<!-- pu_plan -->
<g id="node16" class="node">
<title>pu_plan</title>
<ellipse fill="none" stroke="black" cx="750.43" cy="-854.37" rx="43.46" ry="18"></ellipse>
<text text-anchor="middle" x="750.43" y="-850.77" font-family="Arial" font-size="12.00">plan_type</text>
</g>
<!-- PremiumUser&#45;&#45;pu_plan -->
<g id="edge7" class="edge">
<title>PremiumUser--pu_plan</title>
<path fill="none" stroke="black" d="M844.27,-989.05C823.71,-959.77 782.36,-900.86 762.12,-872.03"></path>
</g>
<!-- AdminUser -->
<g id="node8" class="node">
<title>AdminUser</title>
<polygon fill="#fcfcfc" stroke="black" points="1182.78,-1025.37 1104.08,-1025.37 1104.08,-989.37 1182.78,-989.37 1182.78,-1025.37"></polygon>
<text text-anchor="middle" x="1143.43" y="-1003.77" font-family="Arial" font-size="12.00">admin_user</text>
</g>
<!-- AdminUser&#45;&#45;User -->
<g id="edge43" class="edge">
<title>AdminUser--User</title>
<path fill="none" stroke="black" stroke-width="1.5" d="M1110.22,-988.9C1056.55,-960.66 951.04,-905.15 894.44,-875.37"></path>
<polygon fill="none" stroke="black" stroke-width="1.5" points="896.29,-872.39 885.81,-870.83 893.03,-878.58 896.29,-872.39"></polygon>
</g>
<!-- adm_email -->
<g id="node17" class="node">
<title>adm_email</title>
<ellipse fill="none" stroke="black" cx="1143.43" cy="-854.37" rx="36" ry="18"></ellipse>
<text text-anchor="middle" x="1143.43" y="-850.77" font-family="Arial" font-size="12.00">email</text>
</g>
<!-- AdminUser&#45;&#45;adm_email -->
<g id="edge8" class="edge">
<title>AdminUser--adm_email</title>
<path fill="none" stroke="black" d="M1143.43,-989.05C1143.43,-959.92 1143.43,-901.48 1143.43,-872.49"></path>
</g>
<!-- adm_access -->
<g id="node18" class="node">
<title>adm_access</title>
<ellipse fill="none" stroke="black" cx="1290.43" cy="-854.37" rx="75.4" ry="18"></ellipse>
<text text-anchor="middle" x="1290.43" y="-850.77" font-family="Arial" font-size="12.00">last_admin_access</text>
</g>
<!-- AdminUser&#45;&#45;adm_access -->
<g id="edge9" class="edge">
<title>AdminUser--adm_access</title>
<path fill="none" stroke="black" d="M1160.29,-989.05C1188.8,-959.77 1246.14,-900.86 1274.21,-872.03"></path>
</g>
<!-- LearningSession -->
<g id="node9" class="node">
<title>LearningSession</title>
<polygon fill="#fcfcfc" stroke="black" points="1477.46,-532 1371.4,-532 1371.4,-496 1477.46,-496 1477.46,-532"></polygon>
<polygon fill="none" stroke="black" points="1481.46,-536 1367.4,-536 1367.4,-492 1481.46,-492 1481.46,-536"></polygon>
<text text-anchor="middle" x="1424.43" y="-510.4" font-family="Arial" font-size="12.00">learning_session</text>
</g>
<!-- s_type -->
<g id="node30" class="node">
<title>s_type</title>
<ellipse fill="none" stroke="black" cx="1424.43" cy="-346" rx="54.96" ry="18"></ellipse>
<text text-anchor="middle" x="1424.43" y="-342.4" font-family="Arial" font-size="12.00">session_type</text>
</g>
<!-- LearningSession&#45;&#45;s_type -->
<g id="edge21" class="edge">
<title>LearningSession--s_type</title>
<path fill="none" stroke="black" d="M1424.43,-491.64C1424.43,-458.36 1424.43,-394.81 1424.43,-364.25"></path>
</g>
<!-- s_start -->
<g id="node31" class="node">
<title>s_start</title>
<ellipse fill="none" stroke="black" cx="1559.43" cy="-346" rx="43.87" ry="18"></ellipse>
<text text-anchor="middle" x="1559.43" y="-342.4" font-family="Arial" font-size="12.00">start_time</text>
</g>
<!-- LearningSession&#45;&#45;s_start -->
<g id="edge22" class="edge">
<title>LearningSession--s_start</title>
<path fill="none" stroke="black" d="M1441.8,-491.64C1469.15,-458.01 1521.64,-393.47 1546.17,-363.29"></path>
</g>
<!-- s_end -->
<g id="node32" class="node">
<title>s_end</title>
<ellipse fill="none" stroke="black" cx="1681.43" cy="-346" rx="41.75" ry="18"></ellipse>
<text text-anchor="middle" x="1681.43" y="-342.4" font-family="Arial" font-size="12.00">end_time</text>
</g>
<!-- LearningSession&#45;&#45;s_end -->
<g id="edge23" class="edge">
<title>LearningSession--s_end</title>
<path fill="none" stroke="black" d="M1457.5,-491.64C1510.64,-457.31 1613.67,-390.76 1659.05,-361.45"></path>
</g>
<!-- s_count -->
<g id="node33" class="node">
<title>s_count</title>
<ellipse fill="none" stroke="black" cx="1279.43" cy="-346" rx="53.68" ry="18"></ellipse>
<text text-anchor="middle" x="1279.43" y="-342.4" font-family="Arial" font-size="12.00">words_count</text>
</g>
<!-- LearningSession&#45;&#45;s_count -->
<g id="edge24" class="edge">
<title>LearningSession--s_count</title>
<path fill="none" stroke="black" d="M1405.77,-491.64C1376.55,-458.19 1320.6,-394.14 1294.07,-363.77"></path>
</g>
<!-- Derives&#45;&#45;Word -->
<g id="edge30" class="edge">
<title>Derives--Word</title>
<path fill="none" stroke="black" d="M817.04,-32.98C788.21,-57.57 731.43,-106 731.43,-106 731.43,-106 654.24,-145.38 611.73,-167.07"></path>
<text text-anchor="middle" x="748.04" y="-97" font-family="Arial" font-size="10.00">N</text>
</g>
<!-- Categorizes&#45;&#45;Wordlist -->
<g id="edge32" class="edge">
<title>Categorizes--Wordlist</title>
<path fill="none" stroke="black" d="M248.1,-669.17C255.43,-637.15 271.86,-565.46 279.45,-532.36"></path>
<text text-anchor="middle" x="269.04" y="-597" font-family="Arial" font-size="10.00">N</text>
</g>
<!-- Includes&#45;&#45;Word -->
<g id="edge34" class="edge">
<title>Includes--Word</title>
<path fill="none" stroke="black" d="M584.43,-327.66C584.43,-296.48 584.43,-231.3 584.43,-200.21"></path>
<text text-anchor="middle" x="588.04" y="-261" font-family="Arial" font-size="10.00">N</text>
</g>
<!-- Earns&#45;&#45;Achievement -->
<g id="edge36" class="edge">
<title>Earns--Achievement</title>
<path fill="none" stroke="black" d="M1087.34,-670.38C1074.43,-639 1044.38,-565.95 1030.59,-532.41"></path>
<text text-anchor="middle" x="1065.04" y="-597" font-family="Arial" font-size="10.00">N</text>
</g>
<!-- Studies&#45;&#45;Wordlist -->
<g id="edge38" class="edge">
<title>Studies--Wordlist</title>
<path fill="none" stroke="black" d="M831.1,-677.18C812.12,-671.18 789.43,-664 789.43,-664 789.43,-664 422.5,-555.95 313.56,-523.87"></path>
<text text-anchor="middle" x="586.04" y="-597" font-family="Arial" font-size="10.00">N</text>
</g>
<!-- Performs&#45;&#45;LearningSession -->
<g id="edge40" class="edge">
<title>Performs--LearningSession</title>
<path fill="none" stroke="black" d="M1374.85,-665.66C1385.42,-633.53 1406.41,-569.76 1417.38,-536.42"></path>
<text text-anchor="middle" x="1401.04" y="-597" font-family="Arial" font-size="10.00">N</text>
</g>
</g>
</g></svg>